<svg xmlns="http://www.w3.org/2000/svg" viewBox="0 0 272 92" width="272" height="92">
  <path fill="#4285F4" d="M115.75 47.18c0 12.77-9.99 22.18-22.25 22.18s-22.25-9.41-22.25-22.18c0-12.85 9.99-22.18 22.25-22.18s22.25 9.33 22.25 22.18zm-9.74 0c0-7.98-5.79-13.44-12.51-13.44s-12.51 5.46-12.51 13.44c0 7.9 5.79 13.44 12.51 13.44s12.51-5.55 12.51-13.44z"/>
  <path fill="#EA4335" d="M163.75 47.18c0 12.77-9.99 22.18-22.25 22.18s-22.25-9.41-22.25-22.18c0-12.85 9.99-22.18 22.25-22.18s22.25 9.33 22.25 22.18zm-9.74 0c0-7.98-5.79-13.44-12.51-13.44s-12.51 5.46-12.51 13.44c0 7.9 5.79 13.44 12.51 13.44s12.51-5.55 12.51-13.44z"/>
  <path fill="#FBBC05" d="M209.75 26c12.19 0 21.34 9.99 21.34 22.18 0 13.36-9.91 21.34-21.34 21.34-4.03 0-8.06-1.18-11.43-3.44v2.77c0 8.15-4.37 12.52-11.43 12.52-5.71 0-9.24-4.12-10.75-7.65l8.48-3.53c1.18 2.86 4.12 6.05 8.23 6.05 5.29 0 8.57-3.28 8.57-9.33v-3.61c-3.11 2.27-7.06 3.44-11.09 3.44-12.19 0-21.34-9.99-21.34-22.18C189.98 35.41 199.14 26 209.75 26zm-1.09 34.62c6.64 0 11.76-5.46 11.76-13.44 0-7.9-5.12-13.44-11.76-13.44-6.72 0-11.85 5.54-11.85 13.44 0 7.98 5.13 13.44 11.85 13.44z"/>
  <path fill="#4285F4" d="M238 27.5h9.5v40.73H238z"/>
  <path fill="#34A853" d="M266.36 57.69l7.73 5.15c-2.44 3.61-8.32 9.66-17.73 9.66-12.02 0-21.09-9.41-21.09-22.18 0-13.11 9.16-22.18 20.08-22.18 10.92 0 16.3 9.24 18.06 14.12l.92 2.44-27.14 11.26c2.02 3.95 5.13 6.05 9.58 6.05 4.45 0 7.39-2.18 9.59-4.32zm-12.44-11.43l18.06-7.48c-.92-2.35-3.61-4.03-6.89-4.03-4.54 0-10.84 3.95-11.17 11.51z"/>
  <path fill="#EA4335" d="M35.29 41.52V50.8h27.89c-.93 5.46-5.96 15.96-27.89 15.96-16.78 0-30.49-13.86-30.49-30.93S18.51 4.9 35.29 4.9c9.57 0 15.96 4.07 19.64 7.56l7.39-7.39C47.58 1.13 39.77 0 35.29 0 15.8 0 0 15.8 0 35.83s15.8 35.83 35.29 35.83c20.33 0 33.85-14.28 33.85-34.45 0-2.31-.25-4.07-.59-6.05H35.29z"/>
</svg>
