<svg xmlns="http://www.w3.org/2000/svg" viewBox="0 0 24 24" width="24" height="24">
  <path fill="#4285F4" d="M12 15c1.66 0 3-1.34 3-3s-1.34-3-3-3-3 1.34-3 3 1.34 3 3 3z"/>
  <path fill="#EA4335" d="M17.5 4.5h-2.17l-1.83-2h-3l-1.83 2H6.5C5.12 4.5 4 5.62 4 7v10c0 1.38 1.12 2.5 2.5 2.5h11c1.38 0 2.5-1.12 2.5-2.5V7c0-1.38-1.12-2.5-2.5-2.5zm.5 12.5c0 .28-.22.5-.5.5h-11c-.28 0-.5-.22-.5-.5V7c0-.28.22-.5.5-.5h2.92l1.83-2h4.5l1.83 2H18c.28 0 .5.22.5.5v10z"/>
  <path fill="#FBBC05" d="M12 7c-2.76 0-5 2.24-5 5s2.24 5 5 5 5-2.24 5-5-2.24-5-5-5zm0 8c-1.65 0-3-1.35-3-3s1.35-3 3-3 3 1.35 3 3-1.35 3-3 3z"/>
  <path fill="#34A853" d="M19 8.5c-.55 0-1-.45-1-1s.45-1 1-1 1 .45 1 1-.45 1-1 1z"/>
</svg>
